<?xml version="1.0" encoding="utf-8"?>
<!-- Generator: Adobe Illustrator 19.0.0, SVG Export Plug-In . SVG Version: 6.00 Build 0)  -->
<svg width="35px" height="35px" version="1.1" id="Layer_1" xmlns="http://www.w3.org/2000/svg" xmlns:xlink="http://www.w3.org/1999/xlink" x="0px" y="0px"
	 viewBox="0 0 512 512" style="enable-background:new 0 0 512 512;" xml:space="preserve">
<g id="XMLID_1_">
	<path id="XMLID_3_" style="fill:#FFFFFF" d="M478.8,174.6c-22.1-21.3-52.1-34-83-34c-31.6,0-60.8,11.9-83,34l-34.8,33.2c-1.6,1.6-1.6,4.7,0,6.3
		l21.3,21.3c1.6,1.6,4.7,1.6,6.3,0l34-33.2c15-14.2,34.8-22.1,55.3-22.1c21.3,0,41.1,7.9,55.3,22.1c15,14.2,22.9,34,22.9,54.5
		s-7.9,39.5-22.9,53.7s-34.8,22.1-55.3,22.1c-21.3,0-41.1-7.9-55.3-22.1L200.7,174.6c-22.1-21.3-52.1-34-83-34
		c-31.6,0-60.8,11.9-83,34C12.6,196,0,225.2,0,256s12.6,60,34.8,81.4c22.1,21.3,52.1,34,83,34c31.6,0,60.8-11.9,83-34l34-33.2
		c1.6-1.6,1.6-4.7,0-6.3l-21.3-20.5c-1.6-1.6-4.7-1.6-6.3,0l-34,33.2c-15,14.2-34.8,22.1-55.3,22.1s-41.1-7.9-55.3-22.1
		c-15-14.2-22.9-34-22.9-54.5c0-20.5,7.9-39.5,22.9-53.7c15-14.2,34.8-22.1,55.3-22.1s41.1,7.9,55.3,22.1l138.3,135.1
		c22.1,21.3,52.1,34,83,34c31.6,0,60.8-11.9,83-34C499.3,316,512,286.8,512,256C512.8,225.2,500.9,196,478.8,174.6L478.8,174.6z"/>
</g>
</svg>
